<svg xmlns="http://www.w3.org/2000/svg" viewBox="0 0 384 512" width="384" height="512">
	<style>
		tspan { white-space:pre }
		.shp0 { fill: #e3342f } 
	</style>
	<path id="Layer copy" class="shp0" d="M0 352C0 373.01 4.14 393.82 12.18 413.23C20.22 432.64 32.01 450.28 46.86 465.14C61.72 479.99 79.36 491.78 98.77 499.82C118.18 507.86 138.99 512 160 512L224 512C245.01 512 265.82 507.86 285.23 499.82C304.64 491.78 322.28 479.99 337.14 465.14C351.99 450.28 363.78 432.64 371.82 413.23C379.86 393.82 384 373.01 384 352L384 224L0 224L0 352ZM176 0L160 0C138.99 0 118.18 4.14 98.77 12.18C79.36 20.22 61.72 32.01 46.86 46.86C32.01 61.72 20.22 79.36 12.18 98.77C4.14 118.18 0 138.99 0 160L0 192L176 192L176 0ZM224 0L208 0L208 192L384 192L384 160C384 138.99 379.86 118.18 371.82 98.77C363.78 79.36 351.99 61.72 337.14 46.86C322.28 32.01 304.64 20.22 285.23 12.18C265.82 4.14 245.01 0 224 0L224 0Z" />
</svg>